<svg width="32" height="32" viewBox="0 0 32 32" fill="none" xmlns="http://www.w3.org/2000/svg">
    <!-- Flower petals -->
    <path d="M16 8C18.2091 8 20 6.20914 20 4C20 1.79086 18.2091 0 16 0C13.7909 0 12 1.79086 12 4C12 6.20914 13.7909 8 16 8Z" fill="#4B7F52"/>
    <path d="M24 20C26.2091 20 28 18.2091 28 16C28 13.7909 26.2091 12 24 12C21.7909 12 20 13.7909 20 16C20 18.2091 21.7909 20 24 20Z" fill="#4B7F52"/>
    <path d="M8 20C10.2091 20 12 18.2091 12 16C12 13.7909 10.2091 12 8 12C5.79086 12 4 13.7909 4 16C4 18.2091 5.79086 20 8 20Z" fill="#4B7F52"/>
    <path d="M16 32C18.2091 32 20 30.2091 20 28C20 25.7909 18.2091 24 16 24C13.7909 24 12 25.7909 12 28C12 30.2091 13.7909 32 16 32Z" fill="#4B7F52"/>
    
    <!-- Center circle -->
    <circle cx="16" cy="16" r="6" fill="#BDC997"/>
    
    <!-- Decorative lines -->
    <path d="M16 10C16 10 18 13 16 16M16 16C16 16 13 18 16 22M16 16C16 16 19 16 22 16M16 16C16 16 13 16 10 16" stroke="#E1E9D5" stroke-width="2" stroke-linecap="round"/>
</svg>